<svg width="12" height="20" viewBox="0 0 12 20" fill="none" xmlns="http://www.w3.org/2000/svg">
<path d="M9.12482 19.1004L0.69982 10.7004C0.59982 10.6004 0.52882 10.4921 0.48682 10.3754C0.44482 10.2587 0.424154 10.1337 0.42482 10.0004C0.42482 9.86706 0.44582 9.74206 0.48782 9.62539C0.52982 9.50872 0.600487 9.40039 0.69982 9.30039L9.12482 0.875391C9.35815 0.642057 9.64982 0.525391 9.99982 0.525391C10.3498 0.525391 10.6498 0.650391 10.8998 0.900391C11.1498 1.15039 11.2748 1.44206 11.2748 1.77539C11.2748 2.10872 11.1498 2.40039 10.8998 2.65039L3.54982 10.0004L10.8998 17.3504C11.1332 17.5837 11.2498 17.8714 11.2498 18.2134C11.2498 18.5554 11.1248 18.8511 10.8748 19.1004C10.6248 19.3504 10.3332 19.4754 9.99982 19.4754C9.66649 19.4754 9.37482 19.3504 9.12482 19.1004Z" fill="white"/>
</svg>
